<?xml version="1.0" encoding="UTF-8" standalone="no"?>
<!-- Created with Inkscape (http://www.inkscape.org/) -->

<svg
   width="209mm"
   height="74mm"
   viewBox="0 0 209 74"
   version="1.1"
   id="svg1"
   xml:space="preserve"
   inkscape:version="1.3 (0e150ed6c4, 2023-07-21)"
   sodipodi:docname="logo-prestamos.svg"
   xmlns:inkscape="http://www.inkscape.org/namespaces/inkscape"
   xmlns:sodipodi="http://sodipodi.sourceforge.net/DTD/sodipodi-0.dtd"
   xmlns="http://www.w3.org/2000/svg"
   xmlns:svg="http://www.w3.org/2000/svg"><sodipodi:namedview
     id="namedview1"
     pagecolor="#ffffff"
     bordercolor="#000000"
     borderopacity="0.25"
     inkscape:showpageshadow="2"
     inkscape:pageopacity="0.0"
     inkscape:pagecheckerboard="0"
     inkscape:deskcolor="#d1d1d1"
     inkscape:document-units="mm"
     inkscape:zoom="0.52347032"
     inkscape:cx="70.682135"
     inkscape:cy="476.62683"
     inkscape:window-width="1920"
     inkscape:window-height="1009"
     inkscape:window-x="1912"
     inkscape:window-y="-8"
     inkscape:window-maximized="1"
     inkscape:current-layer="layer1" /><defs
     id="defs1" /><g
     inkscape:label="Capa 1"
     inkscape:groupmode="layer"
     id="layer1"><rect
       style="fill:none;fill-opacity:1;stroke:#808080;stroke-width:1.7;stroke-linecap:round;stroke-linejoin:round;stroke-dasharray:none;stroke-opacity:1"
       id="rect8-3"
       width="25.869865"
       height="23.539141"
       x="38.411201"
       y="2.7529316"
       inkscape:export-filename="logo.png"
       inkscape:export-xdpi="96"
       inkscape:export-ydpi="96" /><path
       style="fill:#808080;stroke-width:1"
       d="M 9.3071862,65.786788 C 4.6220316,61.447921 0.78871858,57.732461 0.78871858,57.53022 c 0,-0.549596 6.14688172,-6.61808 7.39275902,-7.298468 0.5939611,-0.324371 1.6399005,-0.672633 2.3243274,-0.773936 0.998033,-0.147724 1.444614,-0.44709 2.255664,-1.512136 0.556199,-0.730365 1.011269,-1.406337 1.011269,-1.502143 0,-0.254375 1.419783,-1.59963 1.694668,-1.605728 0.2893,-0.0068 3.262367,-1.864236 3.535241,-2.209103 0.109187,-0.13805 0.296255,-0.227656 0.415614,-0.199132 0.119371,0.0285 0.687323,-0.113554 1.262109,-0.315672 1.320689,-0.464474 1.498102,-0.499426 4.503375,-0.887252 2.668534,-0.344368 5.544141,-0.07597 8.230141,0.768065 1.142994,0.359186 3.158564,0.446045 9.849732,0.424469 8.794297,-0.02839 9.337811,0.03815 11.317018,1.383512 0.696327,0.473343 0.76487,0.442172 2.109901,-0.959519 1.625252,-1.693721 2.088542,-2.123494 5.952342,-5.521771 1.597009,-1.404589 3.122766,-2.601608 3.390559,-2.660044 0.911749,-0.198914 3.133121,-0.06882 3.993244,0.233845 0.889223,0.312924 2.611371,1.750091 2.727307,2.275977 0.03643,0.165245 0.251036,0.739856 0.476908,1.276905 0.333553,0.793081 0.330731,1.159842 -0.01509,1.952912 -0.234168,0.537048 -0.436607,1.139641 -0.449869,1.339088 -0.01326,0.19945 -0.218867,0.431807 -0.456911,0.51636 -0.238043,0.08459 -0.432804,0.307507 -0.432804,0.495475 0,0.187957 -0.36518,0.607623 -0.811503,0.932572 -0.446323,0.324962 -0.811503,0.730569 -0.811503,0.901345 0,0.170787 -0.365168,0.576396 -0.811503,0.901345 -0.446324,0.324961 -0.811492,0.730569 -0.811492,0.901345 0,0.170787 -0.365181,0.576396 -0.811504,0.901345 -0.446322,0.324961 -0.811503,0.705824 -0.811503,0.846361 0,0.140547 -0.401691,0.652193 -0.892646,1.137006 -0.490968,0.484801 -1.257827,1.307304 -1.704164,1.827774 -0.446321,0.520481 -1.213193,1.305772 -1.704149,1.745116 -0.490956,0.439346 -0.892646,0.889956 -0.892646,1.001365 0,0.111398 -0.801198,1.00166 -1.780435,1.97836 -0.979235,0.976688 -1.782618,1.877204 -1.785305,2.001138 -0.0024,0.123935 -0.14451,0.22534 -0.315186,0.22534 -0.170678,0 -1.047093,0.402098 -1.947604,0.893543 -0.90051,0.491456 -1.637287,0.843692 -1.637287,0.782759 0,-0.06097 -0.54777,0.01019 -1.217255,0.158307 -0.669484,0.147997 -5.983284,0.266048 -11.808427,0.262346 -6.414466,-0.0046 -10.933716,0.113794 -11.459771,0.298924 -0.477731,0.168118 -1.428812,0.805857 -2.113534,1.417192 -1.054528,0.941531 -1.195999,1.210953 -0.924961,1.761559 0.520902,1.058187 -0.53309,2.48636 -4.744772,6.42926 -2.12639,1.99068 -3.95331,3.619415 -4.059811,3.619415 -0.10649,0 -4.026945,-3.549987 -8.7121019,-7.888853 z m 12.0246458,1.929757 c 2.5569,-2.408848 3.110032,-3.08868 2.994488,-3.680496 -0.184443,-0.944756 -12.929929,-12.593572 -13.779195,-12.593572 -0.5819741,0 -6.3501065,5.462655 -6.3501065,6.013807 0,0.651365 12.9575455,13.214878 13.6293365,13.214878 0.203102,0 1.780569,-1.329573 3.505477,-2.954617 z m 5.296665,-7.826466 c 0.821232,-0.66909 2.033911,-1.307032 2.843046,-1.495625 0.87027,-0.202821 5.530457,-0.33702 12.16048,-0.350159 6.548928,-0.01295 10.825325,-0.134903 10.943568,-0.311981 0.106735,-0.159863 0.324584,-0.216017 0.484086,-0.124775 0.1595,0.09119 1.023635,-0.178203 1.920306,-0.598776 1.150601,-0.539661 2.371967,-1.569425 4.150831,-3.499671 1.386288,-1.504255 2.580528,-2.886472 2.65388,-3.071602 0.07336,-0.185118 0.475056,-0.585355 0.89266,-0.889399 0.417602,-0.304043 0.759276,-0.65527 0.759276,-0.780498 0,-0.125218 0.729454,-0.960416 1.621008,-1.855993 0.891554,-0.895576 1.621915,-1.744061 1.623006,-1.885516 0.001,-0.141468 0.367168,-0.523081 0.813491,-0.848043 0.446335,-0.324961 0.811504,-0.783825 0.811504,-1.019702 0,-0.235866 0.145159,-0.428865 0.322572,-0.428865 0.519736,0 2.274236,-2.43291 2.274236,-3.153622 0,-0.917935 -0.877592,-2.453202 -1.549825,-2.711302 -0.308047,-0.118256 -1.060209,-0.27243 -1.671467,-0.342584 -1.06357,-0.122084 -1.338308,0.08516 -6.385343,4.816787 -4.356325,4.08407 -5.258186,5.077417 -5.183263,5.709092 0.220855,1.862237 -2.04694,4.540551 -4.244143,5.012441 -0.689421,0.148053 -3.891355,0.272431 -7.115421,0.276371 -4.606196,0.0057 -5.996888,-0.08562 -6.492003,-0.425912 -0.50407,-0.346457 -0.55826,-0.54176 -0.27091,-0.976462 0.322377,-0.487709 1.048455,-0.558771 7.087411,-0.693595 l 6.728232,-0.150233 0.912251,-0.945757 C 53.399829,48.437771 53.607754,47.94459 53.54132,47.191786 53.415386,45.76501 53.155272,45.320499 52.112681,44.75045 51.319777,44.31692 49.977568,44.245743 42.150742,44.222192 37.175674,44.207202 32.954889,44.08755 32.771219,43.956257 32.131498,43.498959 29.376611,43.02993 27.330431,43.02993 c -2.333424,0 -5.235899,0.618943 -7.390274,1.575965 -1.532048,0.680571 -5.193616,3.767092 -5.193616,4.377964 0,0.195519 -0.136228,0.355484 -0.302723,0.355484 -0.166505,0 -0.401506,0.288056 -0.522227,0.640134 -0.184001,0.536594 0.691372,1.484269 5.411699,5.858736 3.097174,2.870233 5.683396,5.218601 5.747179,5.218601 0.0638,0 0.760393,-0.525034 1.548028,-1.166735 z M 32.3399,51.68284 c -0.513419,-0.475217 -0.492943,-0.98868 0.05619,-1.41055 0.914104,-0.70219 2.226341,0.512407 1.467702,1.358495 -0.455782,0.50832 -1.010521,0.527261 -1.523941,0.05201 z"
       id="path3"
       sodipodi:nodetypes="sssssscsscssssssssssssssssssssssssscsssccssssssssssssssssscsssssssssssssssscssscsssssssssssssccscc" /><rect
       style="fill:none;fill-opacity:1;stroke:#808080;stroke-width:1.7;stroke-linecap:round;stroke-linejoin:round;stroke-dasharray:none;stroke-opacity:1"
       id="rect8"
       width="25.869865"
       height="23.539141"
       x="26.707645"
       y="15.614402" /><path
       style="fill:none;fill-opacity:1;stroke:#808080;stroke-width:1.7;stroke-linecap:round;stroke-linejoin:round;stroke-dasharray:none;stroke-opacity:1"
       d="M 38.107923,3.0331418 26.889261,15.352049"
       id="path8"
       sodipodi:nodetypes="cc" /><path
       style="fill:none;fill-opacity:1;stroke:#808080;stroke-width:1.7;stroke-linecap:round;stroke-linejoin:round;stroke-dasharray:none;stroke-opacity:1"
       d="M 64.057581,26.309924 52.630701,39.178159"
       id="path9"
       sodipodi:nodetypes="cc" /><path
       style="fill:none;fill-opacity:1;stroke:#808080;stroke-width:1.7;stroke-linecap:round;stroke-linejoin:round;stroke-dasharray:none;stroke-opacity:1"
       d="M 38.107923,26.166435 27.584583,38.747694"
       id="path10" /><path
       style="fill:none;fill-opacity:1;stroke:#808080;stroke-width:1.7;stroke-linecap:round;stroke-linejoin:round;stroke-dasharray:none;stroke-opacity:1"
       d="M 51.957682,15.697562 63.584439,2.6400919"
       id="path11" /><text
       xml:space="preserve"
       style="font-size:40.3873px;font-family:Arial;-inkscape-font-specification:Arial;text-align:center;text-anchor:middle;fill:#808080;fill-opacity:1;stroke:none;stroke-width:1.7;stroke-linecap:round;stroke-linejoin:round;stroke-dasharray:none;stroke-opacity:1"
       x="159.33995"
       y="48.287029"
       id="text11"
       transform="scale(0.90024762,1.1108055)"><tspan
         sodipodi:role="line"
         id="tspan11"
         style="font-style:normal;font-variant:normal;font-weight:normal;font-stretch:normal;font-family:Haettenschweiler;-inkscape-font-specification:Haettenschweiler;stroke:none;stroke-width:1.7"
         x="159.33995"
         y="48.287029">PRESTAMOS</tspan></text></g></svg>
